<svg xmlns="http://www.w3.org/2000/svg" viewBox="0 0 300 300" width="300" height="300">
  <g fill="none" stroke="#1c4a6e" stroke-opacity="0.4" stroke-width="1.2" stroke-linecap="round" stroke-linejoin="round">

    <!-- Huître, style gravure -->
    <g transform="translate(88,196) rotate(-32)">
      <path d="M0,-54 C-10,-38 -24,-18 -30,0 Q-26,10 -20,22 Q-12,14 -6,28 Q0,18 2,32 Q8,20 14,28 Q20,14 26,20 Q30,10 30,0 C24,-18 10,-38 0,-54 Z"
        stroke-width="1.5" />

      <!-- coquille interieure (profondeur) -->
      <path d="M0,-54 C-10,-38 -24,-18 -30,0 Q-26,10 -20,22 Q-12,14 -6,28 Q0,18 2,32 Q8,20 14,28 Q20,14 26,20 Q30,10 30,0 C24,-18 10,-38 0,-54 Z"
        transform="scale(0.86)" stroke-width="0.9" stroke-opacity="0.3" />

      <!-- nervures rayonnantes -->
      <path d="M0,-50 C-6,-32 -14,-12 -18,20" />
      <path d="M0,-50 C-2,-30 -5,-8 -6,25" />
      <path d="M0,-50 C0,-28 1,-4 2,29" />
      <path d="M0,-50 C4,-30 9,-8 13,25" />
      <path d="M0,-50 C6,-32 16,-12 24,18" />

      <!-- hachures d'ombre -->
      <g stroke-width="0.7" stroke-opacity="0.4">
        <path d="M-14,4 l-4,-2" /><path d="M-10,10 l-4,-1" /><path d="M-6,16 l-4,-1" />
        <path d="M6,3 l4,-2" /><path d="M9,10 l4,-1" /><path d="M12,17 l4,0" />
        <path d="M-2,-6 l-3,-3" /><path d="M2,-14 l-2,-3" />
      </g>

      <!-- chair / ombre interieure -->
      <path d="M-14,10 Q0,22 16,9 Q9,20 0,24 Q-9,20 -14,10 Z"
        fill="#1c4a6e" fill-opacity="0.08" stroke-width="0.9" stroke-opacity="0.55" />
      <path d="M-6,10 q6,6 12,0" stroke-width="0.7" stroke-opacity="0.5" />
      <circle cx="1" cy="14" r="2.4" stroke-width="0.9" />
    </g>

    <!-- Citron, style gravure -->
    <g transform="translate(220,92) rotate(12)">
      <path d="M0,-34 C16,-32 22,-14 22,0 C22,14 16,32 0,34 C-16,32 -22,14 -22,0 C-22,-14 -16,-32 0,-34 Z"
        stroke-width="1.4" />
      <!-- pointes / mamelon -->
      <path d="M0,-34 C-2,-38 -1,-41 2,-43" stroke-width="1" />
      <path d="M0,34 C1,37 3,39 3,41" stroke-width="1" />
      <!-- feuille -->
      <path d="M3,-42 C10,-44 16,-40 17,-34 C10,-35 4,-38 3,-42 Z" stroke-width="1" fill="#1c4a6e" fill-opacity="0.06" />
      <path d="M4,-41 C8,-39 12,-37 15,-35" stroke-width="0.7" />

      <!-- ombrage directionnel -->
      <path d="M9,-26 C15,-14 16,10 8,26" stroke-width="0.7" stroke-opacity="0.4" />
      <path d="M13,-20 C17,-8 17,6 12,20" stroke-width="0.6" stroke-opacity="0.35" />

      <!-- grain de peau -->
      <g stroke-width="0.9" stroke-opacity="0.55">
        <circle cx="-9" cy="-22" r="0.7" /><circle cx="-14" cy="-10" r="0.7" />
        <circle cx="-16" cy="4" r="0.7" /><circle cx="-11" cy="17" r="0.7" />
        <circle cx="-2" cy="24" r="0.7" /><circle cx="7" cy="20" r="0.7" />
        <circle cx="13" cy="8" r="0.7" /><circle cx="14" cy="-6" r="0.7" />
        <circle cx="8" cy="-18" r="0.7" /><circle cx="-1" cy="-27" r="0.7" />
        <circle cx="-5" cy="-4" r="0.7" /><circle cx="0" cy="9" r="0.7" />
        <circle cx="4" cy="-9" r="0.7" /><circle cx="-8" cy="10" r="0.7" />
      </g>
    </g>
  </g>
</svg>
